# xmcd CD database file generated by Grip 2.95
# 
# Track frame offsets:
#       150
#       14160
#       28923
#       43495
#       55010
#       67995
#       79080
#       91698
#       100315
#       113183
#       124805
#       136285
#       147700
#       155705
#       169818
#       187755
# 
# Disc length: 2699 seconds
# 
# Revision: 3
# Processed by: cddbd v1.4b41PL1 Copyright (c) Steve Scherf et al.
# Submitted via: Grip 2.95
# 
DISCID=e40a8910
DTITLE=Bo Diddley - Before You Accuse Me
DYEAR=1900
DGENRE=
TTITLE0=Before You Accuse Me
TTITLE1=I'm Bad
TTITLE2=Down Home Special
TTITLE3=Working Man
TTITLE4=The Story of Bo Diddley
TTITLE5=I'm Sorry
TTITLE6=Cadillac
TTITLE7=Bo Diddley's a Gunslinger
TTITLE8=Dearest Darlin'
TTITLE9=I'm Looking for a Woman
TTITLE10=Say Boss Man
TTITLE11=Bo's Twist
TTITLE12=My Babe
TTITLE13=Bo Meets the Monster
TTITLE14=Bo Diddley's Dog
TTITLE15=Mr Custer
EXTD=
EXTT0=
EXTT1=
EXTT2=
EXTT3=
EXTT4=
EXTT5=
EXTT6=
EXTT7=
EXTT8=
EXTT9=
EXTT10=
EXTT11=
EXTT12=
EXTT13=
EXTT14=
EXTT15=
PLAYORDER=
